{
	"asset":{
		"version":"2.0",
		"generator":"Created using the official Cinema 4D glTF Exporter 1.000x284978"
	},
	"scenes":[{
		"nodes":[0,
		1]
	}],
	"buffers":[{
		"uri":"data:application/octet-stream;base64,",
		"byteLength":2184
	},
	{
		"uri":"data:application/octet-stream;base64,",
		"byteLength":1080
	},
	{
		"uri":"data:application/octet-stream;base64,",
		"byteLength":1080
	},
	{
		"uri":"data:application/octet-stream;base64,",
		"byteLength":1080
	},
	{
		"uri":"data:application/octet-stream;base64,",
		"byteLength":1080
	},
	{
		"uri":"data:application/octet-stream;base64,",
		"byteLength":1080
	},
	{
		"uri":"data:application/octet-stream;base64,",
		"byteLength":1080
	},
	{
		"uri":"data:application/octet-stream;base64,",
		"byteLength":1080
	},
	{
		"uri":"data:application/octet-stream;base64,",
		"byteLength":1080
	},
	{
		"uri":"data:application/octet-stream;base64,",
		"byteLength":1080
	},
	{
		"uri":"data:application/octet-stream;base64,",
		"byteLength":1080
	},
	{
		"uri":"data:application/octet-stream;base64,",
		"byteLength":1080
	},
	{
		"uri":"data:application/octet-stream;base64,",
		"byteLength":1080
	},
	{
		"uri":"data:application/octet-stream;base64,",
		"byteLength":1080
	},
	{
		"uri":"data:application/octet-stream;base64,",
		"byteLength":1080
	},
	{
		"uri":"data:application/octet-stream;base64,",
		"byteLength":3048
	},
	{
		"uri":"data:application/octet-stream;base64,",
		"byteLength":3048
	},
	{
		"uri":"data:application/octet-stream;base64,",
		"byteLength":3048
	},
	{
		"uri":"data:application/octet-stream;base64,",
		"byteLength":3048
	},
	{
		"uri":"data:application/octet-stream;base64,",
		"byteLength":3048
	},
	{
		"uri":"data:application/octet-stream;base64,",
		"byteLength":3048
	},
	{
		"uri":"data:application/octet-stream;base64,",
		"byteLength":3048
	},
	{
		"uri":"data:application/octet-stream;base64,",
		"byteLength":3048
	},
	{
		"uri":"data:application/octet-stream;base64,",
		"byteLength":3048
	}],
	"nodes":[{
		"mesh":0,
		"name":"Love",
		"translation":[0.33841902017593386,
		10.607940673828125,
		0.1332058608531952],
		"rotation":[0.7540220618247986,
		-0.0017320686019957066,
		-0.004926728550344706,
		-0.6568283438682556],
		"scale":[1.0,
		1.0,
		1.0]
	},
	{
		"name":"campfire_grp",
		"children":[2,
		3,
		4,
		5,
		6,
		7,
		8,
		9,
		10,
		11,
		12,
		13,
		14,
		15,
		16,
		17,
		18,
		19,
		20,
		21,
		22,
		23,
		24]
	},
	{
		"mesh":1,
		"name":"stick1"
	},
	{
		"mesh":2,
		"name":"stick2"
	},
	{
		"mesh":3,
		"name":"stick3"
	},
	{
		"mesh":4,
		"name":"stick4"
	},
	{
		"mesh":5,
		"name":"stick5"
	},
	{
		"mesh":6,
		"name":"stick6"
	},
	{
		"mesh":7,
		"name":"stick7"
	},
	{
		"mesh":8,
		"name":"stick8"
	},
	{
		"mesh":9,
		"name":"stick9"
	},
	{
		"mesh":10,
		"name":"stick10"
	},
	{
		"mesh":11,
		"name":"stick11"
	},
	{
		"mesh":12,
		"name":"stick12"
	},
	{
		"mesh":13,
		"name":"stick13"
	},
	{
		"mesh":14,
		"name":"stick14"
	},
	{
		"mesh":15,
		"name":"rock1"
	},
	{
		"mesh":16,
		"name":"rock2"
	},
	{
		"mesh":17,
		"name":"rock3"
	},
	{
		"mesh":18,
		"name":"rock4"
	},
	{
		"mesh":19,
		"name":"rock5"
	},
	{
		"mesh":20,
		"name":"rock6"
	},
	{
		"mesh":21,
		"name":"rock7"
	},
	{
		"mesh":22,
		"name":"rock8"
	},
	{
		"mesh":23,
		"name":"rock9"
	}],
	"meshes":[{
		"name":"Love",
		"primitives":[{
			"attributes":{
				"POSITION":1
			},
			"indices":0,
			"material":0
		}]
	},
	{
		"name":"stick1",
		"primitives":[{
			"attributes":{
				"POSITION":3
			},
			"indices":2,
			"material":1
		}]
	},
	{
		"name":"stick2",
		"primitives":[{
			"attributes":{
				"POSITION":5
			},
			"indices":4,
			"material":1
		}]
	},
	{
		"name":"stick3",
		"primitives":[{
			"attributes":{
				"POSITION":7
			},
			"indices":6,
			"material":1
		}]
	},
	{
		"name":"stick4",
		"primitives":[{
			"attributes":{
				"POSITION":9
			},
			"indices":8,
			"material":1
		}]
	},
	{
		"name":"stick5",
		"primitives":[{
			"attributes":{
				"POSITION":11
			},
			"indices":10,
			"material":1
		}]
	},
	{
		"name":"stick6",
		"primitives":[{
			"attributes":{
				"POSITION":13
			},
			"indices":12,
			"material":1
		}]
	},
	{
		"name":"stick7",
		"primitives":[{
			"attributes":{
				"POSITION":15
			},
			"indices":14,
			"material":1
		}]
	},
	{
		"name":"stick8",
		"primitives":[{
			"attributes":{
				"POSITION":17
			},
			"indices":16,
			"material":1
		}]
	},
	{
		"name":"stick9",
		"primitives":[{
			"attributes":{
				"POSITION":19
			},
			"indices":18,
			"material":1
		}]
	},
	{
		"name":"stick10",
		"primitives":[{
			"attributes":{
				"POSITION":21
			},
			"indices":20,
			"material":1
		}]
	},
	{
		"name":"stick11",
		"primitives":[{
			"attributes":{
				"POSITION":23
			},
			"indices":22,
			"material":1
		}]
	},
	{
		"name":"stick12",
		"primitives":[{
			"attributes":{
				"POSITION":25
			},
			"indices":24,
			"material":1
		}]
	},
	{
		"name":"stick13",
		"primitives":[{
			"attributes":{
				"POSITION":27
			},
			"indices":26,
			"material":1
		}]
	},
	{
		"name":"stick14",
		"primitives":[{
			"attributes":{
				"POSITION":29
			},
			"indices":28,
			"material":1
		}]
	},
	{
		"name":"rock1",
		"primitives":[{
			"attributes":{
				"POSITION":31
			},
			"indices":30,
			"material":2
		}]
	},
	{
		"name":"rock2",
		"primitives":[{
			"attributes":{
				"POSITION":33
			},
			"indices":32,
			"material":2
		}]
	},
	{
		"name":"rock3",
		"primitives":[{
			"attributes":{
				"POSITION":35
			},
			"indices":34,
			"material":2
		}]
	},
	{
		"name":"rock4",
		"primitives":[{
			"attributes":{
				"POSITION":37
			},
			"indices":36,
			"material":2
		}]
	},
	{
		"name":"rock5",
		"primitives":[{
			"attributes":{
				"POSITION":39
			},
			"indices":38,
			"material":2
		}]
	},
	{
		"name":"rock6",
		"primitives":[{
			"attributes":{
				"POSITION":41
			},
			"indices":40,
			"material":2
		}]
	},
	{
		"name":"rock7",
		"primitives":[{
			"attributes":{
				"POSITION":43
			},
			"indices":42,
			"material":2
		}]
	},
	{
		"name":"rock8",
		"primitives":[{
			"attributes":{
				"POSITION":45
			},
			"indices":44,
			"material":2
		}]
	},
	{
		"name":"rock9",
		"primitives":[{
			"attributes":{
				"POSITION":47
			},
			"indices":46,
			"material":2
		}]
	}],
	"accessors":[{
		"bufferView":0,
		"type":"SCALAR",
		"componentType":5123,
		"count":540,
		"byteOffset":0,
		"min":[0],
		"max":[91]
	},
	{
		"bufferView":1,
		"type":"VEC3",
		"componentType":5126,
		"count":92,
		"byteOffset":0,
		"min":[-4.012973308563232,
		-1.9750080108642579,
		-3.178300380706787],
		"max":[4.020047664642334,
		1.983432412147522,
		3.537236452102661]
	},
	{
		"bufferView":2,
		"type":"SCALAR",
		"componentType":5123,
		"count":264,
		"byteOffset":0,
		"min":[0],
		"max":[45]
	},
	{
		"bufferView":3,
		"type":"VEC3",
		"componentType":5126,
		"count":46,
		"byteOffset":0,
		"min":[-0.9479674100875855,
		0.08822107315063477,
		-2.9444808959960939],
		"max":[0.2999121844768524,
		4.9651594161987309,
		0.1700369119644165]
	},
	{
		"bufferView":4,
		"type":"SCALAR",
		"componentType":5123,
		"count":264,
		"byteOffset":0,
		"min":[0],
		"max":[45]
	},
	{
		"bufferView":5,
		"type":"VEC3",
		"componentType":5126,
		"count":46,
		"byteOffset":0,
		"min":[-0.530132532119751,
		0.385225772857666,
		-1.3460640907287598],
		"max":[2.67608642578125,
		6.2350969314575199,
		0.655021607875824]
	},
	{
		"bufferView":6,
		"type":"SCALAR",
		"componentType":5123,
		"count":264,
		"byteOffset":0,
		"min":[0],
		"max":[45]
	},
	{
		"bufferView":7,
		"type":"VEC3",
		"componentType":5126,
		"count":46,
		"byteOffset":0,
		"min":[-2.476001501083374,
		0.009631812572479248,
		-0.5359299182891846],
		"max":[0.19387799501419068,
		1.1446870565414429,
		1.2286626100540162]
	},
	{
		"bufferView":8,
		"type":"SCALAR",
		"componentType":5123,
		"count":264,
		"byteOffset":0,
		"min":[0],
		"max":[45]
	},
	{
		"bufferView":9,
		"type":"VEC3",
		"componentType":5126,
		"count":46,
		"byteOffset":0,
		"min":[-0.22727534174919129,
		-0.07643389701843262,
		-2.965810775756836],
		"max":[0.982480525970459,
		1.1779910326004029,
		-0.6908908486366272]
	},
	{
		"bufferView":10,
		"type":"SCALAR",
		"componentType":5123,
		"count":264,
		"byteOffset":0,
		"min":[0],
		"max":[45]
	},
	{
		"bufferView":11,
		"type":"VEC3",
		"componentType":5126,
		"count":46,
		"byteOffset":0,
		"min":[0.2577494978904724,
		0.01958155632019043,
		-0.4565119743347168],
		"max":[2.6261487007141115,
		1.1245763301849366,
		1.7023237943649293]
	},
	{
		"bufferView":12,
		"type":"SCALAR",
		"componentType":5123,
		"count":264,
		"byteOffset":0,
		"min":[0],
		"max":[45]
	},
	{
		"bufferView":13,
		"type":"VEC3",
		"componentType":5126,
		"count":46,
		"byteOffset":0,
		"min":[-1.7046570777893067,
		0.13984525203704835,
		-0.529351532459259],
		"max":[-1.1357773542404175,
		0.714539647102356,
		0.21507033705711366]
	},
	{
		"bufferView":14,
		"type":"SCALAR",
		"componentType":5123,
		"count":264,
		"byteOffset":0,
		"min":[0],
		"max":[45]
	},
	{
		"bufferView":15,
		"type":"VEC3",
		"componentType":5126,
		"count":46,
		"byteOffset":0,
		"min":[-2.2821669578552248,
		0.21727633476257325,
		-1.4218697547912598],
		"max":[1.3919734954833985,
		7.310978889465332,
		1.2687757015228272]
	},
	{
		"bufferView":16,
		"type":"SCALAR",
		"componentType":5123,
		"count":264,
		"byteOffset":0,
		"min":[0],
		"max":[45]
	},
	{
		"bufferView":17,
		"type":"VEC3",
		"componentType":5126,
		"count":46,
		"byteOffset":0,
		"min":[-0.5563560724258423,
		3.535067081451416,
		-0.3384127616882324],
		"max":[0.06024336814880371,
		4.545074462890625,
		-0.04578995704650879]
	},
	{
		"bufferView":18,
		"type":"SCALAR",
		"componentType":5123,
		"count":264,
		"byteOffset":0,
		"min":[0],
		"max":[45]
	},
	{
		"bufferView":19,
		"type":"VEC3",
		"componentType":5126,
		"count":46,
		"byteOffset":0,
		"min":[-0.5963352918624878,
		0.1068340539932251,
		-0.5330430269241333],
		"max":[0.9830679893493652,
		6.141231536865234,
		3.2536396980285646]
	},
	{
		"bufferView":20,
		"type":"SCALAR",
		"componentType":5123,
		"count":264,
		"byteOffset":0,
		"min":[0],
		"max":[45]
	},
	{
		"bufferView":21,
		"type":"VEC3",
		"componentType":5126,
		"count":46,
		"byteOffset":0,
		"min":[-0.2835332155227661,
		3.8662161827087404,
		-0.43446409702301028],
		"max":[0.5469782948493958,
		4.861053466796875,
		0.9962599277496338]
	},
	{
		"bufferView":22,
		"type":"SCALAR",
		"componentType":5123,
		"count":264,
		"byteOffset":0,
		"min":[0],
		"max":[45]
	},
	{
		"bufferView":23,
		"type":"VEC3",
		"componentType":5126,
		"count":46,
		"byteOffset":0,
		"min":[-1.4357640743255616,
		0.11473751068115235,
		0.21203982830047608],
		"max":[0.4542229175567627,
		3.322491407394409,
		2.8316702842712404]
	},
	{
		"bufferView":24,
		"type":"SCALAR",
		"componentType":5123,
		"count":264,
		"byteOffset":0,
		"min":[0],
		"max":[45]
	},
	{
		"bufferView":25,
		"type":"VEC3",
		"componentType":5126,
		"count":46,
		"byteOffset":0,
		"min":[-0.38935500383377077,
		0.20722728967666627,
		-0.5585254430770874],
		"max":[1.0485074520111085,
		2.2079062461853029,
		1.8538687229156495]
	},
	{
		"bufferView":26,
		"type":"SCALAR",
		"componentType":5123,
		"count":264,
		"byteOffset":0,
		"min":[0],
		"max":[45]
	},
	{
		"bufferView":27,
		"type":"VEC3",
		"componentType":5126,
		"count":46,
		"byteOffset":0,
		"min":[-1.6014153957366944,
		0.6557347774505615,
		-0.4721224308013916],
		"max":[2.6950840950012209,
		3.2362020015716554,
		1.4408304691314698]
	},
	{
		"bufferView":28,
		"type":"SCALAR",
		"componentType":5123,
		"count":264,
		"byteOffset":0,
		"min":[0],
		"max":[45]
	},
	{
		"bufferView":29,
		"type":"VEC3",
		"componentType":5126,
		"count":46,
		"byteOffset":0,
		"min":[-1.8471148014068604,
		0.2264547348022461,
		0.08226227760314942],
		"max":[-0.2118169069290161,
		3.630324602127075,
		1.9168628454208375]
	},
	{
		"bufferView":30,
		"type":"SCALAR",
		"componentType":5123,
		"count":756,
		"byteOffset":0,
		"min":[0],
		"max":[127]
	},
	{
		"bufferView":31,
		"type":"VEC3",
		"componentType":5126,
		"count":128,
		"byteOffset":0,
		"min":[-2.994706153869629,
		-0.06664340198040009,
		1.0830190181732178],
		"max":[-1.2658957242965699,
		1.2068153619766236,
		2.734316349029541]
	},
	{
		"bufferView":32,
		"type":"SCALAR",
		"componentType":5123,
		"count":756,
		"byteOffset":0,
		"min":[0],
		"max":[127]
	},
	{
		"bufferView":33,
		"type":"VEC3",
		"componentType":5126,
		"count":128,
		"byteOffset":0,
		"min":[-1.0144472122192383,
		-0.06901617348194123,
		-4.126712322235107],
		"max":[0.42990991473197939,
		1.2312438488006592,
		-2.6093947887420656]
	},
	{
		"bufferView":34,
		"type":"SCALAR",
		"componentType":5123,
		"count":756,
		"byteOffset":0,
		"min":[0],
		"max":[127]
	},
	{
		"bufferView":35,
		"type":"VEC3",
		"componentType":5126,
		"count":128,
		"byteOffset":0,
		"min":[-4.0070953369140629,
		-0.04263308271765709,
		-0.700365424156189],
		"max":[-2.4204840660095217,
		1.513291597366333,
		0.9309379458427429]
	},
	{
		"bufferView":36,
		"type":"SCALAR",
		"componentType":5123,
		"count":756,
		"byteOffset":0,
		"min":[0],
		"max":[127]
	},
	{
		"bufferView":37,
		"type":"VEC3",
		"componentType":5126,
		"count":128,
		"byteOffset":0,
		"min":[2.6547391414642336,
		-0.04489034414291382,
		-0.6153057813644409],
		"max":[3.9603207111358644,
		1.2978570461273194,
		1.0438421964645386]
	},
	{
		"bufferView":38,
		"type":"SCALAR",
		"componentType":5123,
		"count":756,
		"byteOffset":0,
		"min":[0],
		"max":[127]
	},
	{
		"bufferView":39,
		"type":"VEC3",
		"componentType":5126,
		"count":128,
		"byteOffset":0,
		"min":[0.8859856128692627,
		0.014235183596611023,
		-3.6106159687042238],
		"max":[2.1770803928375246,
		1.0872665643692017,
		-2.5198538303375246]
	},
	{
		"bufferView":40,
		"type":"SCALAR",
		"componentType":5123,
		"count":756,
		"byteOffset":0,
		"min":[0],
		"max":[127]
	},
	{
		"bufferView":41,
		"type":"VEC3",
		"componentType":5126,
		"count":128,
		"byteOffset":0,
		"min":[1.4221150875091553,
		-0.18725553154945374,
		1.8071460723876954],
		"max":[2.780858039855957,
		1.1534836292266846,
		3.1256892681121828]
	},
	{
		"bufferView":42,
		"type":"SCALAR",
		"componentType":5123,
		"count":756,
		"byteOffset":0,
		"min":[0],
		"max":[127]
	},
	{
		"bufferView":43,
		"type":"VEC3",
		"componentType":5126,
		"count":128,
		"byteOffset":0,
		"min":[-3.3542211055755617,
		0.005246714223176241,
		-3.124018907546997],
		"max":[-1.596065878868103,
		1.4489182233810425,
		-1.453012228012085]
	},
	{
		"bufferView":44,
		"type":"SCALAR",
		"componentType":5123,
		"count":756,
		"byteOffset":0,
		"min":[0],
		"max":[127]
	},
	{
		"bufferView":45,
		"type":"VEC3",
		"componentType":5126,
		"count":128,
		"byteOffset":0,
		"min":[-1.02683687210083,
		-0.3704105019569397,
		2.480545997619629],
		"max":[0.999220609664917,
		1.1071453094482422,
		4.0908660888671879]
	},
	{
		"bufferView":46,
		"type":"SCALAR",
		"componentType":5123,
		"count":756,
		"byteOffset":0,
		"min":[0],
		"max":[127]
	},
	{
		"bufferView":47,
		"type":"VEC3",
		"componentType":5126,
		"count":128,
		"byteOffset":0,
		"min":[1.9569720029830933,
		-0.06314754486083985,
		-2.6483263969421388],
		"max":[3.595094919204712,
		1.1435095071792603,
		-1.0836509466171265]
	}],
	"bufferViews":[{
		"buffer":0,
		"byteOffset":0,
		"byteLength":1080,
		"target":34963
	},
	{
		"buffer":0,
		"byteOffset":1080,
		"byteLength":1104,
		"target":34962
	},
	{
		"buffer":1,
		"byteOffset":0,
		"byteLength":528,
		"target":34963
	},
	{
		"buffer":1,
		"byteOffset":528,
		"byteLength":552,
		"target":34962
	},
	{
		"buffer":2,
		"byteOffset":0,
		"byteLength":528,
		"target":34963
	},
	{
		"buffer":2,
		"byteOffset":528,
		"byteLength":552,
		"target":34962
	},
	{
		"buffer":3,
		"byteOffset":0,
		"byteLength":528,
		"target":34963
	},
	{
		"buffer":3,
		"byteOffset":528,
		"byteLength":552,
		"target":34962
	},
	{
		"buffer":4,
		"byteOffset":0,
		"byteLength":528,
		"target":34963
	},
	{
		"buffer":4,
		"byteOffset":528,
		"byteLength":552,
		"target":34962
	},
	{
		"buffer":5,
		"byteOffset":0,
		"byteLength":528,
		"target":34963
	},
	{
		"buffer":5,
		"byteOffset":528,
		"byteLength":552,
		"target":34962
	},
	{
		"buffer":6,
		"byteOffset":0,
		"byteLength":528,
		"target":34963
	},
	{
		"buffer":6,
		"byteOffset":528,
		"byteLength":552,
		"target":34962
	},
	{
		"buffer":7,
		"byteOffset":0,
		"byteLength":528,
		"target":34963
	},
	{
		"buffer":7,
		"byteOffset":528,
		"byteLength":552,
		"target":34962
	},
	{
		"buffer":8,
		"byteOffset":0,
		"byteLength":528,
		"target":34963
	},
	{
		"buffer":8,
		"byteOffset":528,
		"byteLength":552,
		"target":34962
	},
	{
		"buffer":9,
		"byteOffset":0,
		"byteLength":528,
		"target":34963
	},
	{
		"buffer":9,
		"byteOffset":528,
		"byteLength":552,
		"target":34962
	},
	{
		"buffer":10,
		"byteOffset":0,
		"byteLength":528,
		"target":34963
	},
	{
		"buffer":10,
		"byteOffset":528,
		"byteLength":552,
		"target":34962
	},
	{
		"buffer":11,
		"byteOffset":0,
		"byteLength":528,
		"target":34963
	},
	{
		"buffer":11,
		"byteOffset":528,
		"byteLength":552,
		"target":34962
	},
	{
		"buffer":12,
		"byteOffset":0,
		"byteLength":528,
		"target":34963
	},
	{
		"buffer":12,
		"byteOffset":528,
		"byteLength":552,
		"target":34962
	},
	{
		"buffer":13,
		"byteOffset":0,
		"byteLength":528,
		"target":34963
	},
	{
		"buffer":13,
		"byteOffset":528,
		"byteLength":552,
		"target":34962
	},
	{
		"buffer":14,
		"byteOffset":0,
		"byteLength":528,
		"target":34963
	},
	{
		"buffer":14,
		"byteOffset":528,
		"byteLength":552,
		"target":34962
	},
	{
		"buffer":15,
		"byteOffset":0,
		"byteLength":1512,
		"target":34963
	},
	{
		"buffer":15,
		"byteOffset":1512,
		"byteLength":1536,
		"target":34962
	},
	{
		"buffer":16,
		"byteOffset":0,
		"byteLength":1512,
		"target":34963
	},
	{
		"buffer":16,
		"byteOffset":1512,
		"byteLength":1536,
		"target":34962
	},
	{
		"buffer":17,
		"byteOffset":0,
		"byteLength":1512,
		"target":34963
	},
	{
		"buffer":17,
		"byteOffset":1512,
		"byteLength":1536,
		"target":34962
	},
	{
		"buffer":18,
		"byteOffset":0,
		"byteLength":1512,
		"target":34963
	},
	{
		"buffer":18,
		"byteOffset":1512,
		"byteLength":1536,
		"target":34962
	},
	{
		"buffer":19,
		"byteOffset":0,
		"byteLength":1512,
		"target":34963
	},
	{
		"buffer":19,
		"byteOffset":1512,
		"byteLength":1536,
		"target":34962
	},
	{
		"buffer":20,
		"byteOffset":0,
		"byteLength":1512,
		"target":34963
	},
	{
		"buffer":20,
		"byteOffset":1512,
		"byteLength":1536,
		"target":34962
	},
	{
		"buffer":21,
		"byteOffset":0,
		"byteLength":1512,
		"target":34963
	},
	{
		"buffer":21,
		"byteOffset":1512,
		"byteLength":1536,
		"target":34962
	},
	{
		"buffer":22,
		"byteOffset":0,
		"byteLength":1512,
		"target":34963
	},
	{
		"buffer":22,
		"byteOffset":1512,
		"byteLength":1536,
		"target":34962
	},
	{
		"buffer":23,
		"byteOffset":0,
		"byteLength":1512,
		"target":34963
	},
	{
		"buffer":23,
		"byteOffset":1512,
		"byteLength":1536,
		"target":34962
	}],
	"materials":[{
		"pbrMetallicRoughness":{
			"baseColorFactor":[0.8,
			0.23200000000000005,
			0.5633333333333327,
			1.0],
			"metallicFactor":1.0,
			"roughnessFactor":1.0
		},
		"emissiveFactor":[0.0,
		0.0,
		0.0],
		"alphaMode":"OPAQUE",
		"doubleSided":false,
		"name":"PBR.1"
	},
	{
		"pbrMetallicRoughness":{
			"baseColorFactor":[0.85,
			0.8212416666666667,
			0.6034999999999998,
			1.0],
			"metallicFactor":1.0,
			"roughnessFactor":1.0
		},
		"emissiveFactor":[0.0,
		0.0,
		0.0],
		"alphaMode":"OPAQUE",
		"doubleSided":false,
		"name":"bark 2 replacement"
	},
	{
		"pbrMetallicRoughness":{
			"baseColorFactor":[0.32,
			0.22719999999999999,
			0.22719999999999999,
			1.0],
			"metallicFactor":1.0,
			"roughnessFactor":1.0
		},
		"emissiveFactor":[0.0,
		0.0,
		0.0],
		"alphaMode":"OPAQUE",
		"doubleSided":false,
		"name":"rock"
	}]
}