{
	"asset":{
		"version":"2.0",
		"generator":"Created using the official Cinema 4D glTF Exporter 1.000x290161"
	},
	"scenes":[{
		"nodes":[0]
	}],
	"nodes":[{
		"name":"Null",
		"children":[1]
	},
	{
		"name":"Loft.2",
		"translation":[70.01931762695313,
		-50.126155853271487,
		-380.73529052734377],
		"rotation":[0.0,
		-0.9505984783172607,
		0.0,
		-0.3104231655597687],
		"scale":[1.0,
		1.0,
		1.0],
		"mesh":0,
		"children":[2,
		3,
		4]
	},
	{
		"name":"Cap 1",
		"translation":[-312.67144775390627,
		205.20834350585938,
		-895.8209228515625],
		"rotation":[0.0,
		0.0,
		0.0,
		-1.0],
		"scale":[1.0,
		1.0,
		1.0],
		"mesh":1
	},
	{
		"name":"Cap 2",
		"translation":[-609.714111328125,
		182.08436584472657,
		-643.5177001953125],
		"rotation":[-0.18964791297912599,
		-0.741557776927948,
		0.28626692295074465,
		-0.5763479471206665],
		"scale":[1.0,
		1.0,
		1.0],
		"mesh":2
	},
	{
		"name":"Boole",
		"translation":[-168.1758270263672,
		50.126155853271487,
		-348.6817626953125],
		"rotation":[0.0,
		-0.9505984783172607,
		0.0,
		0.3104231655597687],
		"scale":[1.0,
		1.0,
		1.0],
		"children":[5]
	},
	{
		"name":"Loft-Cylinder",
		"translation":[-26.51045036315918,
		2.089824676513672,
		731.4391479492188],
		"rotation":[-0.6971551179885864,
		0.0,
		0.0,
		-0.7169203162193298],
		"scale":[1.0,
		1.0,
		1.0],
		"mesh":3
	}],
	"meshes":[{
		"primitives":[{
			"attributes":{
				"POSITION":1,
				"NORMAL":2,
				"TEXCOORD_0":3
			},
			"indices":0,
			"material":0
		}]
	},
	{
		"primitives":[{
			"attributes":{
				"POSITION":5,
				"NORMAL":6,
				"TEXCOORD_0":7
			},
			"indices":4,
			"material":0
		}]
	},
	{
		"primitives":[{
			"attributes":{
				"POSITION":9,
				"NORMAL":10,
				"TEXCOORD_0":11
			},
			"indices":8,
			"material":0
		}]
	},
	{
		"primitives":[{
			"attributes":{
				"POSITION":13,
				"NORMAL":14,
				"TEXCOORD_0":15
			},
			"indices":12,
			"material":1
		}]
	}],
	"accessors":[{
		"bufferView":0,
		"type":"SCALAR",
		"componentType":5123,
		"count":6960,
		"byteOffset":0,
		"min":[0],
		"max":[1229]
	},
	{
		"bufferView":1,
		"type":"VEC3",
		"componentType":5126,
		"count":1230,
		"byteOffset":0,
		"min":[-616.3502807617188,
		174.4270477294922,
		-895.8209228515625],
		"max":[38.69367599487305,
		428.4501037597656,
		-209.78013610839845]
	},
	{
		"bufferView":1,
		"type":"VEC3",
		"componentType":5126,
		"count":1230,
		"byteOffset":12,
		"min":[-0.9979872703552246,
		-0.9984315037727356,
		-0.9986485242843628],
		"max":[0.9948564171791077,
		0.9977083802223206,
		0.9987326860427856]
	},
	{
		"bufferView":1,
		"type":"VEC2",
		"componentType":5126,
		"count":1230,
		"byteOffset":24,
		"min":[0.0,
		0.0],
		"max":[1.0,
		1.0]
	},
	{
		"bufferView":2,
		"type":"SCALAR",
		"componentType":5123,
		"count":81,
		"byteOffset":0,
		"min":[0],
		"max":[28]
	},
	{
		"bufferView":3,
		"type":"VEC3",
		"componentType":5126,
		"count":29,
		"byteOffset":0,
		"min":[-9.937381744384766,
		-9.984206199645996,
		0.0],
		"max":[10.0,
		9.984206199645996,
		0.0]
	},
	{
		"bufferView":3,
		"type":"VEC3",
		"componentType":5126,
		"count":29,
		"byteOffset":12,
		"min":[0.0,
		0.0,
		-1.0],
		"max":[0.0,
		0.0,
		-1.0]
	},
	{
		"bufferView":3,
		"type":"VEC2",
		"componentType":5126,
		"count":29,
		"byteOffset":24,
		"min":[0.0,
		0.0],
		"max":[0.9984460473060608,
		1.0]
	},
	{
		"bufferView":4,
		"type":"SCALAR",
		"componentType":5123,
		"count":81,
		"byteOffset":0,
		"min":[0],
		"max":[28]
	},
	{
		"bufferView":5,
		"type":"VEC3",
		"componentType":5126,
		"count":29,
		"byteOffset":0,
		"min":[-9.937381744384766,
		-9.984206199645996,
		-9.947598300641403e-14],
		"max":[10.0,
		9.984206199645996,
		4.263256414560601e-14]
	},
	{
		"bufferView":5,
		"type":"VEC3",
		"componentType":5126,
		"count":29,
		"byteOffset":12,
		"min":[-1.2582895337655275e-13,
		-1.7835147421429998e-13,
		1.0],
		"max":[3.57320103410233e-13,
		2.8651357003063593e-13,
		1.0]
	},
	{
		"bufferView":5,
		"type":"VEC2",
		"componentType":5126,
		"count":29,
		"byteOffset":24,
		"min":[0.0,
		0.0],
		"max":[0.9986570477485657,
		1.0]
	},
	{
		"bufferView":6,
		"type":"SCALAR",
		"componentType":5123,
		"count":21678,
		"byteOffset":0,
		"min":[0],
		"max":[5922]
	},
	{
		"bufferView":7,
		"type":"VEC3",
		"componentType":5126,
		"count":5923,
		"byteOffset":0,
		"min":[-247.2281036376953,
		-251.2091064453125,
		-352.0989685058594],
		"max":[246.18222045898438,
		171.97201538085938,
		130.73391723632813]
	},
	{
		"bufferView":7,
		"type":"VEC3",
		"componentType":5126,
		"count":5923,
		"byteOffset":12,
		"min":[-0.9985251426696777,
		-0.9994286298751831,
		-0.9983440637588501],
		"max":[0.9968735575675964,
		1.0,
		0.9988997578620911]
	},
	{
		"bufferView":7,
		"type":"VEC2",
		"componentType":5126,
		"count":5923,
		"byteOffset":24,
		"min":[0.0,
		0.0],
		"max":[1.0,
		1.0]
	}],
	"bufferViews":[{
		"buffer":0,
		"byteOffset":0,
		"byteLength":13920,
		"target":34963
	},
	{
		"buffer":0,
		"byteOffset":13920,
		"byteLength":39360,
		"target":34962,
		"byteStride":32
	},
	{
		"buffer":1,
		"byteOffset":0,
		"byteLength":162,
		"target":34963
	},
	{
		"buffer":1,
		"byteOffset":164,
		"byteLength":928,
		"target":34962,
		"byteStride":32
	},
	{
		"buffer":2,
		"byteOffset":0,
		"byteLength":162,
		"target":34963
	},
	{
		"buffer":2,
		"byteOffset":164,
		"byteLength":928,
		"target":34962,
		"byteStride":32
	},
	{
		"buffer":3,
		"byteOffset":0,
		"byteLength":43356,
		"target":34963
	},
	{
		"buffer":3,
		"byteOffset":43356,
		"byteLength":189536,
		"target":34962,
		"byteStride":32
	}],
	"buffers":[{
		"uri":"data:application/octet-stream;base64,",
		"byteLength":53280
	},
	{
		"uri":"data:application/octet-stream;base64,",
		"byteLength":1092
	},
	{
		"uri":"data:application/octet-stream;base64,",
		"byteLength":1092
	},
	{
		"uri":"data:application/octet-stream;base64,",
		"byteLength":232892
	}],
	"materials":[{
		"pbrMetallicRoughness":{
			"baseColorFactor":[0.8,
			0.8,
			0.8,
			1.0],
			"metallicFactor":1.0,
			"roughnessFactor":0.3
		},
		"emissiveFactor":[0.0,
		0.0,
		0.0],
		"alphaMode":"OPAQUE",
		"doubleSided":true,
		"name":"PBR"
	},
	{
		"pbrMetallicRoughness":{
			"baseColorFactor":[0.8,
			0.5279999999999999,
			0.5279999999999999,
			1.0],
			"metallicFactor":0.0,
			"roughnessFactor":0.5
		},
		"emissiveFactor":[0.0,
		0.0,
		0.0],
		"alphaMode":"OPAQUE",
		"doubleSided":true,
		"name":"Mat"
	}]
}