{
	"asset":{
		"version":"2.0",
		"generator":"Created using the official Cinema 4D glTF Exporter 1.000x290161"
	},
	"scenes":[{
		"nodes":[0]
	}],
	"nodes":[{
		"name":"grid",
		"mesh":0
	}],
	"meshes":[{
		"primitives":[{
			"attributes":{
				"POSITION":1,
				"NORMAL":2,
				"TEXCOORD_0":3
			},
			"indices":0,
			"material":0
		}]
	}],
	"accessors":[{
		"bufferView":0,
		"type":"SCALAR",
		"count":17508,
		"componentType":5123,
		"byteOffset":0,
		"min":[0],
		"max":[4077]
	},
	{
		"bufferView":1,
		"type":"VEC3",
		"count":4078,
		"componentType":5126,
		"byteOffset":0,
		"min":[-309.60491943359377,
		-5.101646900177002,
		-316.9356689453125],
		"max":[324.8799743652344,
		85.18738555908203,
		305.1396179199219]
	},
	{
		"bufferView":1,
		"type":"VEC3",
		"count":4078,
		"componentType":5126,
		"byteOffset":12,
		"min":[-0.9999999403953552,
		-1.0,
		-1.0],
		"max":[0.9999998807907105,
		1.0,
		0.9999970197677612]
	},
	{
		"bufferView":1,
		"type":"VEC2",
		"count":4078,
		"componentType":5126,
		"byteOffset":24,
		"min":[0.0,
		0.0],
		"max":[1.0,
		1.0]
	}],
	"bufferViews":[{
		"buffer":0,
		"byteOffset":0,
		"byteLength":35016,
		"target":34963
	},
	{
		"buffer":0,
		"byteOffset":35016,
		"byteLength":130496,
		"target":34962,
		"byteStride":32
	}],
	"buffers":[{
		"uri":"data:application/octet-stream;base64,",
		"byteLength":165512
	}],
	"materials":[{
		"pbrMetallicRoughness":{
			"baseColorFactor":[0.8,
			0.0,
			0.0,
			1.0],
			"metallicFactor":1.0,
			"roughnessFactor":0.3
		},
		"emissiveFactor":[0.0,
		0.0,
		0.0],
		"alphaMode":"OPAQUE",
		"doubleSided":true,
		"name":"PBR"
	}]
}