{
	"asset":{
		"version":"2.0",
		"generator":"Created using the official Cinema 4D glTF Exporter 1.000x290161"
	},
	"scenes":[{
		"nodes":[0]
	}],
	"nodes":[{
		"name":"decor",
		"translation":[18.03131866455078,
		414.2822570800781,
		9.818431854248047],
		"rotation":[0.6525266766548157,
		0.1305275410413742,
		-0.04162612929940224,
		0.7452776432037354],
		"scale":[1.0,
		1.0,
		1.0],
		"children":[1,
		3,
		5,
		13,
		17,
		18,
		19,
		22]
	},
	{
		"name":"Boole.1",
		"translation":[89.0928726196289,
		-1.644005537033081,
		397.70611572265627],
		"rotation":[0.7221810817718506,
		-0.03228500857949257,
		-0.16551992297172547,
		-0.6708317995071411],
		"scale":[1.0,
		1.0,
		1.0],
		"children":[2]
	},
	{
		"name":"heart-circle",
		"translation":[8.472819328308106,
		328.5141906738281,
		1.7104761600494385],
		"rotation":[0.7357001304626465,
		0.03933025524020195,
		-0.08767939358949661,
		0.6704556345939636],
		"scale":[1.0,
		1.0,
		1.0],
		"mesh":0
	},
	{
		"name":"Boole",
		"translation":[96.23529815673828,
		27.77022361755371,
		402.5157165527344],
		"rotation":[0.7221810817718506,
		-0.03228500857949257,
		-0.16551992297172547,
		-0.6708317995071411],
		"scale":[1.0,
		1.0,
		1.0],
		"children":[4]
	},
	{
		"name":"heart-circle",
		"translation":[8.472819328308106,
		328.5141906738281,
		1.7104761600494385],
		"rotation":[0.7357001304626465,
		0.03933025524020195,
		-0.08767939358949661,
		0.6704556345939636],
		"scale":[1.0,
		1.0,
		1.0],
		"mesh":1
	},
	{
		"name":"back",
		"translation":[-3.7662129402160646,
		-34.49898147583008,
		-32.48094940185547],
		"rotation":[0.7249985337257385,
		0.07781002670526505,
		-0.11384207010269165,
		-0.6748057007789612],
		"scale":[1.0,
		1.0,
		1.0],
		"children":[6,
		7,
		8,
		11]
	},
	{
		"name":"Disc",
		"translation":[-253.0345001220703,
		99.90174102783203,
		79.82756805419922],
		"rotation":[0.7249985337257385,
		0.07781002670526505,
		-0.11384207010269165,
		0.6748057007789612],
		"scale":[1.0,
		1.0,
		1.0],
		"mesh":2
	},
	{
		"name":"Disc.1",
		"translation":[195.04904174804688,
		170.2767333984375,
		-38.11674880981445],
		"rotation":[0.7249985337257385,
		0.07781002670526505,
		-0.11384207010269165,
		0.6748057007789612],
		"scale":[1.0,
		1.0,
		1.0],
		"mesh":3
	},
	{
		"name":"bottom",
		"translation":[1.7217223644256592,
		-48.820960998535159,
		-0.9307255148887634],
		"rotation":[0.7249985337257385,
		0.07781002670526505,
		-0.11384207010269165,
		0.6748057007789612],
		"scale":[1.0,
		1.0,
		1.0],
		"mesh":4,
		"children":[9,
		10]
	},
	{
		"name":"Cap 1",
		"mesh":5
	},
	{
		"name":"Cap 2",
		"mesh":6
	},
	{
		"name":"top",
		"translation":[34.27934646606445,
		-46.483909606933597,
		-7.3339362144470219],
		"rotation":[0.7252381443977356,
		0.07923973351716995,
		-0.11230557411909104,
		0.6746392846107483],
		"scale":[1.0,
		1.0,
		1.0],
		"children":[12]
	},
	{
		"name":"top",
		"translation":[3.552713678800501e-15,
		0.0,
		2.0539125955565397e-14],
		"rotation":[0.0,
		0.0,
		0.0,
		-1.0],
		"scale":[1.0,
		1.0,
		1.0],
		"mesh":7
	},
	{
		"name":"heatt",
		"translation":[96.23529815673828,
		27.77022361755371,
		402.5157165527344],
		"rotation":[0.7221810817718506,
		-0.03228500857949257,
		-0.16551992297172547,
		-0.6708317995071411],
		"scale":[1.0,
		1.0,
		1.0],
		"children":[14,
		15]
	},
	{
		"name":"disk",
		"translation":[13.303071975708008,
		402.774658203125,
		-18.705324172973634],
		"rotation":[0.7221810817718506,
		-0.03228500857949257,
		-0.16551992297172547,
		0.6708317995071411],
		"scale":[1.0,
		1.0,
		1.0],
		"mesh":8
	},
	{
		"name":"circle",
		"translation":[14.037275314331055,
		363.2273864746094,
		-11.303176879882813],
		"rotation":[0.7221810817718506,
		-0.03228500857949257,
		-0.16551992297172547,
		0.6708317995071411],
		"scale":[1.0,
		1.0,
		1.0],
		"children":[16]
	},
	{
		"name":"Sphere",
		"translation":[3.2496988773345949,
		-10.355888366699219,
		45.58255386352539],
		"rotation":[0.7221810817718506,
		-0.03228500857949257,
		-0.16551992297172547,
		-0.6708317995071411],
		"scale":[1.0,
		1.0,
		1.0],
		"mesh":9
	},
	{
		"name":"Disc",
		"translation":[-272.8160705566406,
		3.6994543075561525,
		-99.91757202148438],
		"rotation":[0.0,
		-3.469446951953614e-18,
		0.0,
		-1.0],
		"scale":[1.0,
		1.0,
		1.0],
		"mesh":10
	},
	{
		"name":"Disc.1",
		"translation":[191.29196166992188,
		-2.7071290016174318,
		-213.86532592773438],
		"rotation":[0.0,
		0.0,
		0.0,
		-1.0],
		"scale":[1.0,
		1.0,
		1.0],
		"mesh":11
	},
	{
		"name":"bottom",
		"translation":[4.216488838195801,
		-1.5891424417495728,
		13.650774955749512],
		"rotation":[0.0,
		0.0,
		0.0,
		-1.0],
		"scale":[1.0,
		1.0,
		1.0],
		"mesh":12,
		"children":[20,
		21]
	},
	{
		"name":"Cap 1",
		"mesh":13
	},
	{
		"name":"Cap 2",
		"mesh":14
	},
	{
		"name":"top",
		"translation":[37.16999435424805,
		-7.405550003051758,
		9.772991180419922],
		"rotation":[-6.411190516611421e-19,
		-0.002118961187079549,
		1.3585093555668638e-21,
		-0.9999977350234985],
		"scale":[1.0,
		1.0,
		1.0],
		"children":[23]
	},
	{
		"name":"top",
		"translation":[3.552713678800501e-15,
		0.0,
		2.0539125955565397e-14],
		"rotation":[0.0,
		0.0,
		0.0,
		-1.0],
		"scale":[1.0,
		1.0,
		1.0],
		"mesh":15
	}],
	"meshes":[{
		"primitives":[{
			"attributes":{
				"POSITION":1,
				"NORMAL":2,
				"TEXCOORD_0":3
			},
			"indices":0,
			"material":0
		}]
	},
	{
		"primitives":[{
			"attributes":{
				"POSITION":5,
				"NORMAL":6,
				"TEXCOORD_0":7
			},
			"indices":4,
			"material":0
		}]
	},
	{
		"primitives":[{
			"attributes":{
				"POSITION":9,
				"NORMAL":10,
				"TEXCOORD_0":11
			},
			"indices":8,
			"material":1
		}]
	},
	{
		"primitives":[{
			"attributes":{
				"POSITION":13,
				"NORMAL":14,
				"TEXCOORD_0":15
			},
			"indices":12,
			"material":1
		}]
	},
	{
		"primitives":[{
			"attributes":{
				"POSITION":17,
				"NORMAL":18,
				"TEXCOORD_0":19
			},
			"indices":16,
			"material":2
		}]
	},
	{
		"primitives":[{
			"attributes":{
				"POSITION":21,
				"NORMAL":22,
				"TEXCOORD_0":23
			},
			"indices":20,
			"material":2
		}]
	},
	{
		"primitives":[{
			"attributes":{
				"POSITION":25,
				"NORMAL":26,
				"TEXCOORD_0":27
			},
			"indices":24,
			"material":2
		}]
	},
	{
		"primitives":[{
			"attributes":{
				"POSITION":29,
				"NORMAL":30,
				"TEXCOORD_0":31
			},
			"indices":28,
			"material":3
		}]
	},
	{
		"primitives":[{
			"attributes":{
				"POSITION":33,
				"NORMAL":34,
				"TEXCOORD_0":35
			},
			"indices":32,
			"material":4
		}]
	},
	{
		"primitives":[{
			"attributes":{
				"POSITION":37,
				"NORMAL":38,
				"TEXCOORD_0":39
			},
			"indices":36,
			"material":1
		}]
	},
	{
		"primitives":[{
			"attributes":{
				"POSITION":41,
				"NORMAL":42,
				"TEXCOORD_0":43
			},
			"indices":40,
			"material":1
		}]
	},
	{
		"primitives":[{
			"attributes":{
				"POSITION":45,
				"NORMAL":46,
				"TEXCOORD_0":47
			},
			"indices":44,
			"material":1
		}]
	},
	{
		"primitives":[{
			"attributes":{
				"POSITION":49,
				"NORMAL":50,
				"TEXCOORD_0":51
			},
			"indices":48,
			"material":2
		}]
	},
	{
		"primitives":[{
			"attributes":{
				"POSITION":53,
				"NORMAL":54,
				"TEXCOORD_0":55
			},
			"indices":52,
			"material":2
		}]
	},
	{
		"primitives":[{
			"attributes":{
				"POSITION":57,
				"NORMAL":58,
				"TEXCOORD_0":59
			},
			"indices":56,
			"material":2
		}]
	},
	{
		"primitives":[{
			"attributes":{
				"POSITION":61,
				"NORMAL":62,
				"TEXCOORD_0":63
			},
			"indices":60,
			"material":3
		}]
	}],
	"accessors":[{
		"bufferView":0,
		"type":"SCALAR",
		"componentType":5123,
		"count":1890,
		"byteOffset":0,
		"min":[0],
		"max":[639]
	},
	{
		"bufferView":1,
		"type":"VEC3",
		"componentType":5126,
		"count":640,
		"byteOffset":0,
		"min":[-147.35545349121095,
		-1.0238882303237916,
		-116.4048080444336],
		"max":[151.11370849609376,
		3.242253065109253,
		133.1432342529297]
	},
	{
		"bufferView":1,
		"type":"VEC3",
		"componentType":5126,
		"count":640,
		"byteOffset":12,
		"min":[-0.9999939203262329,
		-0.000008054317731875926,
		-0.9999993443489075],
		"max":[0.9999904632568359,
		1.0,
		0.9997922778129578]
	},
	{
		"bufferView":1,
		"type":"VEC2",
		"componentType":5126,
		"count":640,
		"byteOffset":24,
		"min":[0.0,
		0.0],
		"max":[1.0,
		1.0]
	},
	{
		"bufferView":2,
		"type":"SCALAR",
		"componentType":5123,
		"count":1890,
		"byteOffset":0,
		"min":[0],
		"max":[639]
	},
	{
		"bufferView":3,
		"type":"VEC3",
		"componentType":5126,
		"count":640,
		"byteOffset":0,
		"min":[-147.35545349121095,
		-1.0238882303237916,
		-116.4048080444336],
		"max":[151.11370849609376,
		3.242253065109253,
		133.1432342529297]
	},
	{
		"bufferView":3,
		"type":"VEC3",
		"componentType":5126,
		"count":640,
		"byteOffset":12,
		"min":[-0.9999939203262329,
		-0.000008054317731875926,
		-0.9999993443489075],
		"max":[0.9999904632568359,
		1.0,
		0.9997922778129578]
	},
	{
		"bufferView":3,
		"type":"VEC2",
		"componentType":5126,
		"count":640,
		"byteOffset":24,
		"min":[0.0,
		0.0],
		"max":[1.0,
		1.0]
	},
	{
		"bufferView":4,
		"type":"SCALAR",
		"componentType":5123,
		"count":756,
		"byteOffset":0,
		"min":[0],
		"max":[144]
	},
	{
		"bufferView":5,
		"type":"VEC3",
		"componentType":5126,
		"count":145,
		"byteOffset":0,
		"min":[-15.0,
		0.0,
		-15.0],
		"max":[15.0,
		0.0,
		15.0]
	},
	{
		"bufferView":5,
		"type":"VEC3",
		"componentType":5126,
		"count":145,
		"byteOffset":12,
		"min":[0.0,
		1.0,
		0.0],
		"max":[0.0,
		1.0,
		0.0]
	},
	{
		"bufferView":5,
		"type":"VEC2",
		"componentType":5126,
		"count":145,
		"byteOffset":24,
		"min":[0.0,
		0.0],
		"max":[1.0,
		1.0]
	},
	{
		"bufferView":6,
		"type":"SCALAR",
		"componentType":5123,
		"count":756,
		"byteOffset":0,
		"min":[0],
		"max":[144]
	},
	{
		"bufferView":7,
		"type":"VEC3",
		"componentType":5126,
		"count":145,
		"byteOffset":0,
		"min":[-15.0,
		0.0,
		-15.0],
		"max":[15.0,
		0.0,
		15.0]
	},
	{
		"bufferView":7,
		"type":"VEC3",
		"componentType":5126,
		"count":145,
		"byteOffset":12,
		"min":[0.0,
		1.0,
		0.0],
		"max":[0.0,
		1.0,
		0.0]
	},
	{
		"bufferView":7,
		"type":"VEC2",
		"componentType":5126,
		"count":145,
		"byteOffset":24,
		"min":[0.0,
		0.0],
		"max":[1.0,
		1.0]
	},
	{
		"bufferView":8,
		"type":"SCALAR",
		"componentType":5123,
		"count":102,
		"byteOffset":0,
		"min":[0],
		"max":[55]
	},
	{
		"bufferView":9,
		"type":"VEC3",
		"componentType":5126,
		"count":56,
		"byteOffset":0,
		"min":[-214.3608856201172,
		-10.0,
		181.54443359375],
		"max":[332.3185729980469,
		0.0,
		357.14990234375]
	},
	{
		"bufferView":9,
		"type":"VEC3",
		"componentType":5126,
		"count":56,
		"byteOffset":12,
		"min":[-0.9993847012519836,
		0.0,
		-0.9943439960479736],
		"max":[0.974744439125061,
		0.0,
		0.9825593829154968]
	},
	{
		"bufferView":9,
		"type":"VEC2",
		"componentType":5126,
		"count":56,
		"byteOffset":24,
		"min":[0.0,
		0.0],
		"max":[1.0,
		1.0]
	},
	{
		"bufferView":10,
		"type":"SCALAR",
		"componentType":5123,
		"count":33,
		"byteOffset":0,
		"min":[0],
		"max":[16]
	},
	{
		"bufferView":11,
		"type":"VEC3",
		"componentType":5126,
		"count":17,
		"byteOffset":0,
		"min":[-214.3608856201172,
		0.0,
		181.54443359375],
		"max":[332.3185729980469,
		0.0,
		357.14990234375]
	},
	{
		"bufferView":11,
		"type":"VEC3",
		"componentType":5126,
		"count":17,
		"byteOffset":12,
		"min":[0.0,
		1.0,
		0.0],
		"max":[0.0,
		1.0,
		0.0]
	},
	{
		"bufferView":11,
		"type":"VEC2",
		"componentType":5126,
		"count":17,
		"byteOffset":24,
		"min":[0.0,
		0.0],
		"max":[1.0,
		0.3212220072746277]
	},
	{
		"bufferView":12,
		"type":"SCALAR",
		"componentType":5123,
		"count":33,
		"byteOffset":0,
		"min":[0],
		"max":[16]
	},
	{
		"bufferView":13,
		"type":"VEC3",
		"componentType":5126,
		"count":17,
		"byteOffset":0,
		"min":[-214.3608856201172,
		-10.0,
		181.54443359375],
		"max":[332.3185729980469,
		-10.0,
		357.14990234375]
	},
	{
		"bufferView":13,
		"type":"VEC3",
		"componentType":5126,
		"count":17,
		"byteOffset":12,
		"min":[0.0,
		-1.0,
		0.0],
		"max":[0.0,
		-1.0,
		0.0]
	},
	{
		"bufferView":13,
		"type":"VEC2",
		"componentType":5126,
		"count":17,
		"byteOffset":24,
		"min":[0.0,
		0.0],
		"max":[1.0,
		0.3212220072746277]
	},
	{
		"bufferView":14,
		"type":"SCALAR",
		"componentType":5123,
		"count":42,
		"byteOffset":0,
		"min":[0],
		"max":[13]
	},
	{
		"bufferView":15,
		"type":"VEC3",
		"componentType":5126,
		"count":14,
		"byteOffset":0,
		"min":[-257.444091796875,
		-2.545937602177386e-14,
		-326.35040283203127],
		"max":[140.47694396972657,
		3.3375195375396838e-14,
		-40.219024658203128]
	},
	{
		"bufferView":15,
		"type":"VEC3",
		"componentType":5126,
		"count":14,
		"byteOffset":12,
		"min":[-1.5641287904685249e-16,
		-1.0,
		2.767458470749262e-17],
		"max":[-1.5641282610729329e-16,
		-1.0,
		2.7674803083174337e-17]
	},
	{
		"bufferView":15,
		"type":"VEC2",
		"componentType":5126,
		"count":14,
		"byteOffset":24,
		"min":[0.0,
		0.0],
		"max":[1.0,
		0.7190656661987305]
	},
	{
		"bufferView":16,
		"type":"SCALAR",
		"componentType":5123,
		"count":1140,
		"byteOffset":0,
		"min":[0],
		"max":[427]
	},
	{
		"bufferView":17,
		"type":"VEC3",
		"componentType":5126,
		"count":428,
		"byteOffset":0,
		"min":[-352.74072265625,
		7.105427357601002e-15,
		-353.3114929199219],
		"max":[356.8304748535156,
		20.0,
		374.3895568847656]
	},
	{
		"bufferView":17,
		"type":"VEC3",
		"componentType":5126,
		"count":428,
		"byteOffset":12,
		"min":[-0.9998704195022583,
		-1.0,
		-0.9998704791069031],
		"max":[0.9998703598976135,
		1.0,
		0.9998703598976135]
	},
	{
		"bufferView":17,
		"type":"VEC2",
		"componentType":5126,
		"count":428,
		"byteOffset":24,
		"min":[0.0,
		0.0],
		"max":[1.0,
		1.0]
	},
	{
		"bufferView":18,
		"type":"SCALAR",
		"componentType":5123,
		"count":1584,
		"byteOffset":0,
		"min":[0],
		"max":[322]
	},
	{
		"bufferView":19,
		"type":"VEC3",
		"componentType":5126,
		"count":323,
		"byteOffset":0,
		"min":[-42.3038330078125,
		-42.3038330078125,
		-42.3038330078125],
		"max":[42.3038330078125,
		42.3038330078125,
		42.3038330078125]
	},
	{
		"bufferView":19,
		"type":"VEC3",
		"componentType":5126,
		"count":323,
		"byteOffset":12,
		"min":[-1.0,
		-1.0,
		-1.0],
		"max":[1.0,
		1.0,
		1.0]
	},
	{
		"bufferView":19,
		"type":"VEC2",
		"componentType":5126,
		"count":323,
		"byteOffset":24,
		"min":[0.0,
		0.0],
		"max":[1.0,
		1.0]
	},
	{
		"bufferView":20,
		"type":"SCALAR",
		"componentType":5123,
		"count":756,
		"byteOffset":0,
		"min":[0],
		"max":[144]
	},
	{
		"bufferView":21,
		"type":"VEC3",
		"componentType":5126,
		"count":145,
		"byteOffset":0,
		"min":[-15.0,
		0.0,
		-15.0],
		"max":[15.0,
		0.0,
		15.0]
	},
	{
		"bufferView":21,
		"type":"VEC3",
		"componentType":5126,
		"count":145,
		"byteOffset":12,
		"min":[0.0,
		1.0,
		0.0],
		"max":[0.0,
		1.0,
		0.0]
	},
	{
		"bufferView":21,
		"type":"VEC2",
		"componentType":5126,
		"count":145,
		"byteOffset":24,
		"min":[0.0,
		0.0],
		"max":[1.0,
		1.0]
	},
	{
		"bufferView":22,
		"type":"SCALAR",
		"componentType":5123,
		"count":756,
		"byteOffset":0,
		"min":[0],
		"max":[144]
	},
	{
		"bufferView":23,
		"type":"VEC3",
		"componentType":5126,
		"count":145,
		"byteOffset":0,
		"min":[-15.0,
		0.0,
		-15.0],
		"max":[15.0,
		0.0,
		15.0]
	},
	{
		"bufferView":23,
		"type":"VEC3",
		"componentType":5126,
		"count":145,
		"byteOffset":12,
		"min":[0.0,
		1.0,
		0.0],
		"max":[0.0,
		1.0,
		0.0]
	},
	{
		"bufferView":23,
		"type":"VEC2",
		"componentType":5126,
		"count":145,
		"byteOffset":24,
		"min":[0.0,
		0.0],
		"max":[1.0,
		1.0]
	},
	{
		"bufferView":24,
		"type":"SCALAR",
		"componentType":5123,
		"count":102,
		"byteOffset":0,
		"min":[0],
		"max":[55]
	},
	{
		"bufferView":25,
		"type":"VEC3",
		"componentType":5126,
		"count":56,
		"byteOffset":0,
		"min":[-214.3608856201172,
		-10.0,
		181.54443359375],
		"max":[332.3185729980469,
		0.0,
		357.14990234375]
	},
	{
		"bufferView":25,
		"type":"VEC3",
		"componentType":5126,
		"count":56,
		"byteOffset":12,
		"min":[-0.9993847012519836,
		0.0,
		-0.9943439960479736],
		"max":[0.974744439125061,
		0.0,
		0.9825593829154968]
	},
	{
		"bufferView":25,
		"type":"VEC2",
		"componentType":5126,
		"count":56,
		"byteOffset":24,
		"min":[0.0,
		0.0],
		"max":[1.0,
		1.0]
	},
	{
		"bufferView":26,
		"type":"SCALAR",
		"componentType":5123,
		"count":33,
		"byteOffset":0,
		"min":[0],
		"max":[16]
	},
	{
		"bufferView":27,
		"type":"VEC3",
		"componentType":5126,
		"count":17,
		"byteOffset":0,
		"min":[-214.3608856201172,
		0.0,
		181.54443359375],
		"max":[332.3185729980469,
		0.0,
		357.14990234375]
	},
	{
		"bufferView":27,
		"type":"VEC3",
		"componentType":5126,
		"count":17,
		"byteOffset":12,
		"min":[0.0,
		1.0,
		0.0],
		"max":[0.0,
		1.0,
		0.0]
	},
	{
		"bufferView":27,
		"type":"VEC2",
		"componentType":5126,
		"count":17,
		"byteOffset":24,
		"min":[0.0,
		0.0],
		"max":[1.0,
		0.3212220072746277]
	},
	{
		"bufferView":28,
		"type":"SCALAR",
		"componentType":5123,
		"count":33,
		"byteOffset":0,
		"min":[0],
		"max":[16]
	},
	{
		"bufferView":29,
		"type":"VEC3",
		"componentType":5126,
		"count":17,
		"byteOffset":0,
		"min":[-214.3608856201172,
		-10.0,
		181.54443359375],
		"max":[332.3185729980469,
		-10.0,
		357.14990234375]
	},
	{
		"bufferView":29,
		"type":"VEC3",
		"componentType":5126,
		"count":17,
		"byteOffset":12,
		"min":[0.0,
		-1.0,
		0.0],
		"max":[0.0,
		-1.0,
		0.0]
	},
	{
		"bufferView":29,
		"type":"VEC2",
		"componentType":5126,
		"count":17,
		"byteOffset":24,
		"min":[0.0,
		0.0],
		"max":[1.0,
		0.3212220072746277]
	},
	{
		"bufferView":30,
		"type":"SCALAR",
		"componentType":5123,
		"count":42,
		"byteOffset":0,
		"min":[0],
		"max":[13]
	},
	{
		"bufferView":31,
		"type":"VEC3",
		"componentType":5126,
		"count":14,
		"byteOffset":0,
		"min":[-257.444091796875,
		-2.545937602177386e-14,
		-326.35040283203127],
		"max":[140.47694396972657,
		3.3375195375396838e-14,
		-40.219024658203128]
	},
	{
		"bufferView":31,
		"type":"VEC3",
		"componentType":5126,
		"count":14,
		"byteOffset":12,
		"min":[-1.5641287904685249e-16,
		-1.0,
		2.767458470749262e-17],
		"max":[-1.5641282610729329e-16,
		-1.0,
		2.7674803083174337e-17]
	},
	{
		"bufferView":31,
		"type":"VEC2",
		"componentType":5126,
		"count":14,
		"byteOffset":24,
		"min":[0.0,
		0.0],
		"max":[1.0,
		0.7190656661987305]
	}],
	"bufferViews":[{
		"buffer":0,
		"byteOffset":0,
		"byteLength":3780,
		"target":34963
	},
	{
		"buffer":0,
		"byteOffset":3780,
		"byteLength":20480,
		"target":34962,
		"byteStride":32
	},
	{
		"buffer":1,
		"byteOffset":0,
		"byteLength":3780,
		"target":34963
	},
	{
		"buffer":1,
		"byteOffset":3780,
		"byteLength":20480,
		"target":34962,
		"byteStride":32
	},
	{
		"buffer":2,
		"byteOffset":0,
		"byteLength":1512,
		"target":34963
	},
	{
		"buffer":2,
		"byteOffset":1512,
		"byteLength":4640,
		"target":34962,
		"byteStride":32
	},
	{
		"buffer":3,
		"byteOffset":0,
		"byteLength":1512,
		"target":34963
	},
	{
		"buffer":3,
		"byteOffset":1512,
		"byteLength":4640,
		"target":34962,
		"byteStride":32
	},
	{
		"buffer":4,
		"byteOffset":0,
		"byteLength":204,
		"target":34963
	},
	{
		"buffer":4,
		"byteOffset":204,
		"byteLength":1792,
		"target":34962,
		"byteStride":32
	},
	{
		"buffer":5,
		"byteOffset":0,
		"byteLength":66,
		"target":34963
	},
	{
		"buffer":5,
		"byteOffset":68,
		"byteLength":544,
		"target":34962,
		"byteStride":32
	},
	{
		"buffer":6,
		"byteOffset":0,
		"byteLength":66,
		"target":34963
	},
	{
		"buffer":6,
		"byteOffset":68,
		"byteLength":544,
		"target":34962,
		"byteStride":32
	},
	{
		"buffer":7,
		"byteOffset":0,
		"byteLength":84,
		"target":34963
	},
	{
		"buffer":7,
		"byteOffset":84,
		"byteLength":448,
		"target":34962,
		"byteStride":32
	},
	{
		"buffer":8,
		"byteOffset":0,
		"byteLength":2280,
		"target":34963
	},
	{
		"buffer":8,
		"byteOffset":2280,
		"byteLength":13696,
		"target":34962,
		"byteStride":32
	},
	{
		"buffer":9,
		"byteOffset":0,
		"byteLength":3168,
		"target":34963
	},
	{
		"buffer":9,
		"byteOffset":3168,
		"byteLength":10336,
		"target":34962,
		"byteStride":32
	},
	{
		"buffer":10,
		"byteOffset":0,
		"byteLength":1512,
		"target":34963
	},
	{
		"buffer":10,
		"byteOffset":1512,
		"byteLength":4640,
		"target":34962,
		"byteStride":32
	},
	{
		"buffer":11,
		"byteOffset":0,
		"byteLength":1512,
		"target":34963
	},
	{
		"buffer":11,
		"byteOffset":1512,
		"byteLength":4640,
		"target":34962,
		"byteStride":32
	},
	{
		"buffer":12,
		"byteOffset":0,
		"byteLength":204,
		"target":34963
	},
	{
		"buffer":12,
		"byteOffset":204,
		"byteLength":1792,
		"target":34962,
		"byteStride":32
	},
	{
		"buffer":13,
		"byteOffset":0,
		"byteLength":66,
		"target":34963
	},
	{
		"buffer":13,
		"byteOffset":68,
		"byteLength":544,
		"target":34962,
		"byteStride":32
	},
	{
		"buffer":14,
		"byteOffset":0,
		"byteLength":66,
		"target":34963
	},
	{
		"buffer":14,
		"byteOffset":68,
		"byteLength":544,
		"target":34962,
		"byteStride":32
	},
	{
		"buffer":15,
		"byteOffset":0,
		"byteLength":84,
		"target":34963
	},
	{
		"buffer":15,
		"byteOffset":84,
		"byteLength":448,
		"target":34962,
		"byteStride":32
	}],
	"buffers":[{
		"uri":"data:application/octet-stream;base64,",
		"byteLength":24260
	},
	{
		"uri":"data:application/octet-stream;base64,",
		"byteLength":24260
	},
	{
		"uri":"data:application/octet-stream;base64,",
		"byteLength":6152
	},
	{
		"uri":"data:application/octet-stream;base64,",
		"byteLength":6152
	},
	{
		"uri":"data:application/octet-stream;base64,",
		"byteLength":1996
	},
	{
		"uri":"data:application/octet-stream;base64,",
		"byteLength":612
	},
	{
		"uri":"data:application/octet-stream;base64,",
		"byteLength":612
	},
	{
		"uri":"data:application/octet-stream;base64,",
		"byteLength":532
	},
	{
		"uri":"data:application/octet-stream;base64,",
		"byteLength":15976
	},
	{
		"uri":"data:application/octet-stream;base64,",
		"byteLength":13504
	},
	{
		"uri":"data:application/octet-stream;base64,",
		"byteLength":6152
	},
	{
		"uri":"data:application/octet-stream;base64,",
		"byteLength":6152
	},
	{
		"uri":"data:application/octet-stream;base64,",
		"byteLength":1996
	},
	{
		"uri":"data:application/octet-stream;base64,",
		"byteLength":612
	},
	{
		"uri":"data:application/octet-stream;base64,",
		"byteLength":612
	},
	{
		"uri":"data:application/octet-stream;base64,",
		"byteLength":532
	}],
	"materials":[{
		"pbrMetallicRoughness":{
			"baseColorFactor":[0.8,
			0.48106666666666667,
			0.43200000000000007,
			1.0],
			"metallicFactor":0.0,
			"roughnessFactor":0.5
		},
		"emissiveFactor":[0.0,
		0.0,
		0.0],
		"alphaMode":"OPAQUE",
		"doubleSided":true,
		"name":"Mat"
	},
	{
		"pbrMetallicRoughness":{
			"baseColorFactor":[0.3040000000000001,
			0.5767999999999999,
			0.8,
			1.0],
			"metallicFactor":1.0,
			"roughnessFactor":0.3
		},
		"emissiveFactor":[0.0,
		0.0,
		0.0],
		"alphaMode":"OPAQUE",
		"doubleSided":true,
		"name":"PBR.2"
	},
	{
		"pbrMetallicRoughness":{
			"baseColorFactor":[0.91,
			0.7498400000000001,
			0.1092,
			1.0],
			"metallicFactor":1.0,
			"roughnessFactor":1.0
		},
		"emissiveFactor":[0.0,
		0.0,
		0.0],
		"alphaMode":"OPAQUE",
		"doubleSided":true,
		"name":"PBR.3"
	},
	{
		"pbrMetallicRoughness":{
			"baseColorFactor":[0.7408000000000002,
			0.504,
			0.8,
			1.0],
			"metallicFactor":1.0,
			"roughnessFactor":0.3
		},
		"emissiveFactor":[0.0,
		0.0,
		0.0],
		"alphaMode":"OPAQUE",
		"doubleSided":true,
		"name":"PBR.1"
	},
	{
		"pbrMetallicRoughness":{
			"baseColorFactor":[0.4640000000000001,
			0.8,
			0.3200000000000001,
			1.0],
			"metallicFactor":1.0,
			"roughnessFactor":0.3
		},
		"emissiveFactor":[0.0,
		0.0,
		0.0],
		"alphaMode":"OPAQUE",
		"doubleSided":true,
		"name":"PBR"
	}]
}